<?xml version="1.0" encoding="utf-8"?>
<!-- Generator: Adobe Illustrator 22.1.0, SVG Export Plug-In . SVG Version: 6.00 Build 0)  -->
<svg version="1.1" id="图层_1" xmlns="http://www.w3.org/2000/svg" xmlns:xlink="http://www.w3.org/1999/xlink" x="0px" y="0px"
	 viewBox="0 0 226.8 226.8" style="enable-background:new 0 0 226.8 226.8;" xml:space="preserve">
<style type="text/css">
	.st0{fill:none;}
	.st1{fill:#DD1615;}
	.st2{fill:#971E23;}
	.st3{fill:#BC1A21;}
	.st4{fill:url(#SVGID_1_);}
</style>
<g>
	<path class="st0" d="M67.4,164c-5.1,6.8-1.9,11.9,0,15.3c1.9,3.4,5.1,4.3,5.1,4.3l1.1-22.3C71,160.1,67.4,164,67.4,164z"/>
	<path class="st1" d="M158.9,107.2l0.6-1.9c6.6-8.5,5.7-27.7,5.7-27.7c-0.6-19.8-20.2-29.6-24.9-38.7c-4.7-9.1,4.5-17,6.6-19.1
		c2.1-2.1,1.7-3.6,1.1-3.6c-0.4,0-2-4.1-2.8-6.1c-0.3-0.7-0.9-1.1-1.6-1.1l-1,0c-0.2,0-0.5,0-0.7,0.1c-5.2,1.7-9.2,13.3-9.2,13.3
		c-8.1,21.7,2.8,31.3,9.6,38.1c6.8,6.8,6.8,17,4.3,22.1c-2.6,5.1-10,9.8-10,9.8c-5.7,4-7-1.1-16.4,1.5c-9.3,2.6-9.8,13.4-9.8,13.4
		l-2.3,0.4c-11.9,5.7-20.4,21.3-23.4,25.7c-3,4.5-7.4,16.4-7.4,16.4c-4.3,2.6-16,6.4-18.9,13.4c-1.7,4-1.5,8.1-0.9,11
		c0.4,1.5,1.3,3.7,3.2,6.1c0,0,0,0,0,0c8.4,10.1,6,12.1,5.6,15.1c-0.4,3.2-3.6,5.7-3.6,5.7c4,3.4,9.4-0.9,9.4-0.9s-0.9,11.1,0,13.8
		c0.9,2.8,4.7,4,4.7,4H101l3.6-16.8c5.7-14,15.7-13,15.7-13c12.8,1.9,13,20.6,13,20.6l8.7,5.3c15.7,0.9,17.7-4.7,17.7-4.7
		c2.8-11.5-5.3-42.5-10.6-65.7c-5.3-23.2,10.4-32.3,12.1-34.9C162.9,106.3,158.9,107.2,158.9,107.2z M72.5,183.5
		c0,0-3.2-0.8-5.1-4.3c-1.9-3.4-5.1-8.5,0-15.3c0,0,3.6-3.8,6.2-2.8L72.5,183.5z"/>
	<path class="st2" d="M113.8,189.9c0,0,6.1-5.8,17.7,0c0,0,8.9,3.7,10.6,24.3l-8.7-5.3C133.4,208.9,133,183.4,113.8,189.9z"/>
	<path class="st3" d="M144.1,113.2c-0.4-1.5-0.4-3.1,0.1-4.5c0.4-1.2,0.3-2.6,0.3-2.6s0,0,0,0c-0.2-3.3-1.9-8.5-9.1-11.3
		c-11.1-4.3-21.5,4.5-20.2,13.6c0,0,1.1,10.2,11.1,16c0,0,0,0,0,0c0,0,5.5,1.5,8.9,8.3c0,0,0,0,0,0c0,0,10.3-4,9.4-17.1
		c0-0.5-0.1-1-0.3-1.5L144.1,113.2z"/>
	<linearGradient id="SVGID_1_" gradientUnits="userSpaceOnUse" x1="118.3216" y1="101.2135" x2="152.1598" y2="120.6946">
		<stop  offset="0" style="stop-color:#951E23"/>
		<stop  offset="0.2989" style="stop-color:#A21F24;stop-opacity:0"/>
	</linearGradient>
	<path class="st4" d="M138.7,103.4c0,0-4.6-7.8-13.1-3.4c-8.5,4.4-4.3,16-1.5,19.4c0,0,1.2,1.8,2.8,3.2c1.6,1.4-9.7-3.7-11.6-15
		c0,0-0.6-11,10.5-13.6c11.1-2.6,15.4,4.3,17.1,8.2c0,0,1.2,5.4-0.7,7L138.7,103.4z"/>
</g>
</svg>
